<svg xmlns="http://www.w3.org/2000/svg" viewBox="0 0 100 100">
  <circle cx="50" cy="50" r="48" fill="#004d98" stroke="#a50044" stroke-width="3"/>
  <path d="M30,25 L70,25 L70,75 L30,75 Z" fill="none" stroke="#a50044" stroke-width="2"/>
  <line x1="30" y1="40" x2="70" y2="40" stroke="#a50044" stroke-width="2"/>
  <line x1="30" y1="60" x2="70" y2="60" stroke="#a50044" stroke-width="2"/>
  <line x1="50" y1="25" x2="50" y2="75" stroke="#a50044" stroke-width="2"/>
  <text x="50" y="53" font-family="Arial" font-size="30" font-weight="bold" fill="#fdc52c" text-anchor="middle">FCB</text>
  <circle cx="38" cy="32" r="3" fill="#fdc52c"/>
  <circle cx="62" cy="32" r="3" fill="#fdc52c"/>
  <circle cx="38" cy="68" r="3" fill="#fdc52c"/>
  <circle cx="62" cy="68" r="3" fill="#fdc52c"/>
  <path d="M20,20 C25,15 30,12 36,10 C42,8 45,8 50,8 C55,8 58,8 64,10 C70,12 75,15 80,20" stroke="#fdc52c" stroke-width="2" fill="none"/>
  <path d="M20,80 C25,85 30,88 36,90 C42,92 45,92 50,92 C55,92 58,92 64,90 C70,88 75,85 80,80" stroke="#fdc52c" stroke-width="2" fill="none"/>
</svg>
