<svg xmlns="http://www.w3.org/2000/svg" viewBox="0 0 100 100">
  <circle cx="50" cy="50" r="48" fill="#ffffff" stroke="#cccbcb" stroke-width="2"/>
  <path d="M50 5 C 75 5, 95 25, 95 50 C 95 75, 75 95, 50 95 C 25 95, 5 75, 5 50 C 5 25, 25 5, 50 5 Z" fill="#ffffff" stroke="#cccbcb" stroke-width="0.5"/>
  <path d="M55.7,25.3h-3.5l-0.7,2.1h-3.8L52.8,15h1.6l5.1,12.4h-3.8L55.7,25.3z M54.8,22.7L53.9,20l-0.9,2.7H54.8z" fill="#0b529c"/>
  <path d="M50.5,13c-20.4,0-37,16.6-37,37s16.6,37,37,37s37-16.6,37-37S70.9,13,50.5,13z M50.5,84c-18.8,0-34-15.2-34-34 s15.2-34,34-34s34,15.2,34,34S69.3,84,50.5,84z" fill="#0b529c"/>
  <path d="M50.4,17.3c-18,0-32.7,14.7-32.7,32.7s14.7,32.7,32.7,32.7s32.7-14.7,32.7-32.7S68.4,17.3,50.4,17.3z M50.4,80.7 c-17,0-30.7-13.7-30.7-30.7s13.7-30.7,30.7-30.7s30.7,13.7,30.7,30.7S67.4,80.7,50.4,80.7z" fill="#0b529c"/>
  <path d="M41,45v12h18V45H41z M56,54h-12v-6h12V54z" fill="#f0c148"/>
  <path d="M29,45v12h10V45H29z M36,54h-4v-6h4V54z" fill="#f0c148"/>
  <path d="M61,45v12h10V45H61z M68,54h-4v-6h4V54z" fill="#f0c148"/>
  <path d="M50,15c-19.33,0-35,15.67-35,35s15.67,35,35,35s35-15.67,35-35S69.33,15,50,15z M50,82 c-17.67,0-32-14.33-32-32s14.33-32,32-32s32,14.33,32,32S67.67,82,50,82z" fill="#fcbd11"/>
  <path d="M42,37h16v6H42V37z" fill="#fcbd11"/>
  <path d="M61,37h10v6H61V37z" fill="#fcbd11"/>
  <path d="M29,37h10v6H29V37z" fill="#fcbd11"/>
  <path d="M50,22c-2.06,0-4.08,0.28-6,0.81v9.19h12V22.8C54.08,22.28,52.06,22,50,22z" fill="#fcbd11"/>
  <path d="M42,58h16v10c-5.1,1.99-10.9,1.99-16,0V58z" fill="#fcbd11"/>
  <path d="M29,58h10v7.76c-3.87-2.12-7.05-5.3-9.16-9.16L29,58V58z" fill="#fcbd11"/>
  <path d="M61,58h10l-0.84-1.4c-2.11,3.86-5.29,7.04-9.16,9.16V58z" fill="#fcbd11"/>
  <path d="M76.2,50c0-14.47-11.73-26.2-26.2-26.2S23.8,35.53,23.8,50S35.53,76.2,50,76.2S76.2,64.47,76.2,50z M50,73.2 c-12.81,0-23.2-10.39-23.2-23.2S37.19,26.8,50,26.8S73.2,37.19,73.2,50S62.81,73.2,50,73.2z" fill="#fcbd11"/>
</svg>
